<?xml version="1.0" standalone="no"?>
<!DOCTYPE svg PUBLIC "-//W3C//DTD SVG 20010904//EN"
 "http://www.w3.org/TR/2001/REC-SVG-20010904/DTD/svg10.dtd">
<svg version="1.0" xmlns="http://www.w3.org/2000/svg"
 width="1841.000000pt" height="1841.000000pt" viewBox="0 0 1841.000000 1841.000000"
 preserveAspectRatio="xMidYMid meet">
<metadata>
Created by potrace 1.14, written by Peter Selinger 2001-2017
</metadata>
<g transform="translate(0.000000,1841.000000) scale(0.100000,-0.100000)"
fill="#000000" stroke="none">
<path d="M8425 18074 c-38 -2 -173 -8 -300 -14 -1711 -78 -3394 -377 -4878
-866 -818 -270 -1429 -530 -2233 -950 l-92 -48 -7 -286 c-20 -742 25 -1834
111 -2715 35 -361 117 -1022 128 -1033 3 -2 112 34 243 81 131 47 318 111 415
142 165 53 178 59 173 78 -8 36 -53 406 -79 657 -77 729 -117 1435 -119 2125
l-2 407 200 95 c1528 724 3345 1191 5340 1372 623 57 1058 75 1785 75 608 0
853 -7 1340 -40 2161 -144 4256 -636 6023 -1414 l187 -83 0 -81 c0 -169 -20
-961 -30 -1206 -27 -653 -76 -1295 -135 -1765 -8 -66 -15 -131 -15 -145 0 -24
12 -29 218 -98 119 -40 305 -106 412 -146 188 -70 195 -72 202 -52 19 60 93
745 127 1181 54 693 90 1727 91 2596 l0 277 -77 37 c-965 465 -1773 775 -2758
1059 -1437 413 -2878 649 -4570 747 -175 10 -1540 20 -1700 13z"/>
<path d="M8450 16589 c-2134 -85 -4138 -558 -5720 -1351 -129 -64 -250 -126
-268 -137 l-32 -21 0 -418 c0 -444 11 -817 35 -1227 16 -252 50 -686 63 -781
l7 -51 170 47 170 47 -2 39 c-1 21 -11 149 -23 284 -39 477 -69 1207 -70 1691
l0 146 217 105 c1319 641 2930 1057 4673 1208 813 70 1775 79 2590 25 1884
-127 3707 -562 5222 -1247 l178 -80 -6 -287 c-7 -419 -23 -969 -34 -1181 -14
-251 -39 -628 -45 -666 l-5 -31 171 -47 c94 -26 173 -45 175 -43 7 7 31 310
48 607 26 450 36 754 43 1330 l6 555 -174 82 c-1671 783 -3619 1259 -5659
1383 -493 30 -1254 38 -1730 19z"/>
<path d="M8244 15026 c-203 -47 -324 -209 -324 -435 0 -292 176 -481 449 -481
114 0 285 60 357 127 l31 28 -5 178 -4 177 -57 0 c-32 0 -119 -3 -195 -7
l-137 -6 3 -76 3 -76 103 4 102 3 0 -54 c0 -62 -8 -72 -80 -108 -54 -27 -161
-38 -212 -21 -54 18 -112 74 -139 133 -32 73 -40 247 -14 314 22 59 58 100
108 126 51 26 142 34 191 18 47 -15 100 -61 115 -98 l12 -29 90 20 c49 11 89
25 89 31 0 6 -11 34 -24 61 -30 66 -109 136 -178 159 -71 24 -207 29 -284 12z"/>
<path d="M9102 14593 l3 -448 88 -3 87 -3 0 451 0 450 -90 0 -90 0 2 -447z"/>
<path d="M9860 14903 c-29 -71 -111 -270 -181 -443 l-128 -315 91 -3 c50 -1
94 1 98 5 4 4 22 46 40 93 17 47 35 88 38 92 4 4 83 4 176 0 l169 -7 34 -101
34 -101 91 -7 c50 -4 93 -5 95 -2 10 9 -287 876 -309 904 -7 8 -41 12 -102 12
l-92 0 -54 -127z m250 -413 c0 -5 -222 -1 -228 5 -1 1 25 73 60 161 l62 158
53 -159 c29 -88 53 -162 53 -165z"/>
<path d="M7130 14945 c-326 -31 -305 -27 -308 -55 -3 -29 84 -859 91 -866 4
-5 166 12 171 17 3 4 -13 184 -28 322 l-5 47 65 0 c44 0 76 -6 94 -17 16 -9
83 -85 150 -169 l121 -152 77 5 c42 3 89 8 103 12 l27 6 -77 106 c-110 153
-149 198 -199 230 -38 24 -42 29 -26 35 133 47 184 113 184 237 0 107 -44 189
-122 225 -59 28 -148 32 -318 17z m220 -170 c53 -48 42 -147 -20 -177 -48 -24
-279 -46 -290 -28 -7 12 -24 199 -18 205 7 7 197 23 250 21 39 -2 64 -8 78
-21z"/>
<path d="M11207 14953 c-3 -4 -6 -39 -8 -78 l-4 -70 117 -12 c64 -6 122 -13
130 -15 11 -2 8 -61 -19 -338 -17 -184 -32 -349 -33 -367 0 -31 1 -32 58 -38
31 -3 70 -7 87 -8 l30 -2 37 364 c21 200 40 366 42 368 2 2 59 -2 127 -10 68
-8 127 -12 130 -8 4 3 10 39 14 79 6 66 5 72 -11 72 -11 0 -73 7 -139 14 -66
8 -199 22 -295 30 -96 9 -194 18 -217 21 -23 3 -43 2 -46 -2z"/>
<path d="M12235 14838 c-7 -23 -114 -873 -109 -877 2 -2 83 -15 181 -28 98
-13 244 -34 325 -46 l147 -23 10 61 c14 79 14 95 -1 95 -28 1 -459 67 -463 71
-5 5 24 222 31 228 2 3 100 -9 217 -26 139 -20 214 -27 218 -21 11 18 21 130
12 138 -4 4 -91 20 -193 34 -102 15 -197 29 -211 32 l-25 5 12 90 c7 50 15 93
17 95 4 4 373 -48 446 -62 l29 -6 12 72 c7 40 8 75 4 80 -5 4 -139 26 -299 49
-159 23 -305 44 -323 47 -22 3 -34 1 -37 -8z"/>
<path d="M5973 14821 c-85 -23 -121 -41 -168 -83 -92 -80 -135 -184 -135 -323
0 -288 151 -484 384 -502 226 -17 404 95 462 292 23 77 22 217 -1 305 -37 143
-129 257 -243 300 -82 32 -206 36 -299 11z m250 -178 c63 -44 96 -105 114
-214 13 -74 14 -104 5 -152 -22 -119 -93 -191 -201 -204 -149 -17 -254 87
-279 277 -28 211 68 336 251 326 56 -3 76 -9 110 -33z"/>
<path d="M5230 14694 c-8 -2 -150 -28 -314 -59 -165 -31 -301 -57 -302 -58 -4
-3 173 -867 178 -873 3 -2 124 18 269 45 145 27 285 52 310 56 72 11 73 12 59
94 -6 39 -15 71 -18 71 -4 0 -106 -18 -227 -40 -121 -22 -227 -42 -235 -43
-11 -1 -20 26 -36 113 -12 63 -21 116 -20 117 1 1 98 20 215 42 117 21 214 41
216 43 4 4 -20 137 -27 143 -3 3 -101 -13 -219 -34 -117 -22 -215 -39 -216
-37 -2 1 -10 42 -19 90 -13 68 -14 90 -5 96 7 4 110 24 229 45 119 21 221 41
225 45 4 4 2 39 -4 78 -12 73 -15 76 -59 66z"/>
<path d="M13494 14640 c-202 -40 -326 -212 -341 -471 -7 -119 16 -206 76 -291
123 -171 398 -212 550 -82 45 39 113 132 105 145 -9 16 -158 91 -161 82 -2 -6
-17 -30 -32 -55 -81 -127 -262 -113 -333 26 -18 35 -20 53 -15 150 3 79 11
129 27 175 53 151 188 209 316 137 43 -24 84 -86 84 -128 l0 -28 96 0 97 0 -6
49 c-17 147 -144 263 -317 290 -73 12 -88 12 -146 1z"/>
<path d="M14360 14462 c0 -4 -43 -198 -95 -432 -52 -233 -92 -427 -88 -430 10
-8 163 -43 167 -39 1 2 21 87 44 188 24 102 44 186 45 187 1 2 78 -15 170 -38
141 -33 167 -42 163 -56 -25 -83 -86 -347 -83 -356 6 -15 157 -51 166 -40 7 8
221 833 221 852 0 4 -35 17 -77 27 -43 10 -83 20 -89 22 -7 3 -27 -59 -54
-166 -23 -94 -44 -171 -45 -171 -11 0 -327 79 -331 83 -3 3 11 73 30 157 20
84 36 160 36 169 0 12 -20 21 -77 34 -87 19 -103 21 -103 9z"/>
<path d="M3932 14438 c-231 -26 -379 -156 -412 -360 -23 -146 38 -337 143
-446 134 -139 346 -159 557 -52 60 30 143 94 173 133 l25 32 -38 170 c-25 117
-41 171 -51 173 -15 3 -357 -73 -365 -81 -4 -4 25 -136 31 -145 1 -1 41 7 89
18 48 11 93 20 100 20 8 0 18 -21 24 -52 l11 -53 -40 -37 c-129 -118 -303
-115 -393 9 -64 89 -101 251 -77 341 25 92 139 172 244 172 55 -1 117 -29 148
-69 l24 -31 78 34 c43 19 80 36 83 39 10 9 -25 65 -64 103 -69 68 -168 96
-290 82z"/>
<path d="M8510 13363 c-1512 -54 -2721 -183 -4080 -438 -1203 -226 -2477 -578
-3378 -935 l-133 -53 6 -51 c8 -72 595 -6168 595 -6183 0 -8 21 -3 58 14 231
103 776 303 1147 421 1676 534 3441 845 5430 958 381 21 1542 30 1956 15 1612
-60 3081 -262 4521 -622 863 -216 1611 -464 2365 -786 7 -3 14 5 17 19 6 26
477 6148 476 6190 0 24 -9 30 -107 71 -597 251 -1560 549 -2443 756 -1520 356
-3099 560 -4810 621 -238 8 -1407 11 -1620 3z m985 -865 c86 -353 218 -912
261 -1105 21 -95 39 -171 40 -170 1 1 47 173 102 382 127 475 301 1098 311
1108 7 7 331 -4 553 -19 l98 -6 -6 -72 c-3 -39 -32 -538 -64 -1109 -32 -572
-60 -1041 -62 -1043 -5 -4 -361 16 -366 21 -2 1 13 384 32 851 20 466 34 849
33 851 -5 5 -211 -756 -342 -1262 -58 -225 -108 -415 -110 -422 -3 -9 -52 -10
-192 -6 -103 3 -190 7 -192 9 -2 2 -50 211 -106 466 -108 486 -273 1200 -284
1230 -3 9 -5 -370 -3 -843 l3 -859 -185 0 -186 0 0 48 c0 26 -9 457 -20 957
-11 501 -20 981 -20 1068 l0 157 324 0 324 0 57 -232z m-1100 21 l7 -186 -193
-7 c-281 -10 -941 -51 -945 -59 -1 -4 38 -482 40 -484 1 -1 83 4 181 12 210
17 465 32 691 41 l161 7 6 -79 c4 -43 8 -128 9 -189 l2 -110 -245 -12 c-287
-14 -712 -42 -751 -49 -26 -5 -27 -8 -23 -47 3 -23 14 -156 25 -296 11 -140
21 -255 22 -256 2 -1 75 4 163 11 140 11 601 37 856 48 l86 3 7 -66 c3 -36 6
-121 6 -188 l0 -122 -42 -5 c-24 -3 -160 -10 -303 -16 -272 -11 -708 -40 -979
-65 -88 -8 -161 -13 -163 -11 -6 6 -214 2208 -209 2213 21 22 1553 122 1578
103 3 -3 9 -89 13 -191z m3111 125 c104 -8 191 -18 193 -20 6 -5 -188 -2207
-195 -2213 -6 -6 -383 24 -390 31 -5 6 137 2031 152 2166 7 62 -18 58 240 36z
m989 -100 c567 -67 1195 -161 1195 -178 -1 -23 -57 -357 -61 -360 -2 -2 -130
15 -284 39 -318 49 -835 118 -841 112 -2 -2 -15 -96 -29 -208 -13 -112 -27
-221 -30 -241 -5 -37 -4 -38 25 -38 72 0 985 -131 997 -144 3 -3 -7 -86 -23
-186 -24 -152 -31 -180 -46 -180 -9 0 -104 14 -210 30 -212 34 -677 97 -748
102 l-45 3 -35 -297 c-20 -164 -33 -298 -30 -298 58 0 1028 -140 1083 -156 11
-4 16 -12 13 -22 -3 -9 -17 -92 -32 -184 -15 -93 -32 -168 -37 -168 -5 0 -62
9 -126 20 -270 45 -726 108 -1131 155 -117 13 -214 26 -216 28 -2 2 48 499
111 1105 63 605 115 1103 115 1106 0 3 19 3 43 1 23 -3 177 -21 342 -41z
m-6405 -84 c88 -29 150 -71 216 -144 99 -110 151 -246 161 -421 15 -288 -130
-508 -401 -607 -66 -24 -68 -20 35 -78 75 -42 188 -146 272 -249 34 -41 144
-190 244 -331 181 -253 183 -255 155 -261 -15 -4 -121 -17 -236 -30 l-210 -23
-27 35 c-526 663 -570 713 -672 759 -50 23 -144 26 -259 8 -71 -10 -77 -13
-73 -32 15 -63 144 -890 140 -894 -3 -3 -91 -20 -196 -37 -131 -22 -192 -29
-195 -21 -7 19 -384 2146 -384 2166 0 12 10 20 28 24 135 29 903 147 1032 160
25 2 104 3 175 1 102 -2 144 -7 195 -25z m8258 -201 c573 -107 893 -186 1038
-255 239 -113 351 -373 285 -659 -33 -139 -88 -243 -175 -330 -40 -39 -95 -82
-126 -97 -80 -40 -200 -68 -292 -68 l-78 0 59 -75 c86 -108 124 -182 180 -351
48 -142 191 -653 191 -679 0 -8 -71 5 -230 44 l-229 56 -92 280 c-151 464
-213 621 -275 694 -44 53 -147 95 -300 124 l-32 6 -87 -447 c-49 -246 -91
-451 -95 -455 -7 -8 -377 57 -387 67 -3 2 83 492 191 1088 108 596 196 1087
196 1091 0 13 38 8 258 -34z m-10348 -145 c149 -42 286 -158 357 -304 59 -119
85 -229 90 -375 8 -214 -43 -353 -181 -491 -118 -118 -202 -152 -596 -244
-124 -29 -226 -54 -227 -54 -1 -1 42 -185 96 -409 l98 -407 -36 -10 c-185 -48
-352 -87 -355 -81 -5 7 -543 2107 -548 2135 -3 22 57 39 537 151 501 116 620
129 765 89z m6305 -2023 c223 -46 381 -156 488 -341 35 -60 85 -212 93 -283
l7 -57 -29 -1 c-16 0 -102 -12 -192 -27 l-162 -28 -10 41 c-37 149 -134 260
-267 307 -76 26 -224 27 -309 0 -170 -53 -291 -198 -344 -412 -43 -173 -38
-505 11 -681 55 -197 184 -348 338 -393 70 -21 202 -21 272 0 72 21 199 88
242 127 l35 32 6 136 6 137 -197 7 c-109 3 -204 8 -212 11 -11 4 -13 24 -8
111 4 58 7 141 7 185 l0 78 79 0 c153 0 717 -32 726 -42 3 -2 -8 -202 -25
-443 l-30 -439 -27 -28 c-38 -40 -156 -119 -238 -160 -161 -81 -312 -118 -482
-118 -424 0 -723 249 -858 715 -49 171 -60 254 -59 475 0 222 15 328 71 490
110 321 340 542 628 603 103 23 328 21 440 -2z m-1971 -258 c125 -321 288
-755 391 -1043 122 -342 315 -909 315 -926 0 -12 -30 -14 -192 -12 l-192 3
-84 246 -85 245 -86 -3 c-119 -5 -626 -34 -627 -36 -1 -1 -26 -114 -54 -252
-29 -137 -55 -253 -59 -256 -7 -8 -363 -40 -369 -34 -6 6 92 467 184 864 115
499 339 1387 354 1404 8 9 195 23 330 26 l85 1 89 -227z m3224 152 c73 -6 135
-15 139 -18 3 -4 -22 -289 -56 -634 -83 -846 -87 -900 -72 -980 37 -200 176
-304 389 -291 94 6 144 29 200 94 82 92 92 142 213 1082 l84 642 30 0 c34 -1
355 -47 359 -52 4 -4 -186 -1286 -208 -1408 -42 -234 -89 -376 -158 -487 -76
-121 -210 -215 -356 -249 -88 -21 -300 -13 -427 15 -249 57 -409 214 -476 467
-37 140 -29 376 36 1157 30 368 57 672 60 677 5 7 22 6 243 -15z m-4644 -57
c14 -84 34 -334 28 -339 -4 -3 -123 -18 -265 -33 -262 -28 -734 -90 -742 -98
-5 -4 62 -469 69 -475 2 -2 123 11 268 31 325 43 648 80 654 74 8 -9 43 -363
36 -369 -4 -4 -117 -19 -252 -34 -281 -31 -639 -80 -647 -89 -6 -6 74 -576 82
-584 2 -2 128 12 278 32 284 38 699 85 706 80 5 -5 42 -367 37 -372 -2 -2
-134 -19 -293 -38 -245 -29 -657 -84 -946 -126 -42 -6 -79 -9 -82 -6 -7 7
-359 2187 -354 2192 11 11 599 96 969 141 118 14 247 29 285 34 39 5 91 9 117
10 46 1 47 0 52 -31z m6506 -188 c364 -61 1216 -233 1234 -250 8 -8 -60 -337
-73 -359 -4 -5 -52 1 -111 15 -96 22 -722 149 -847 172 -29 5 -53 6 -53 3 0
-4 -18 -105 -40 -226 -22 -121 -40 -227 -40 -236 0 -12 18 -19 73 -28 224 -40
825 -166 835 -176 5 -5 -69 -347 -77 -357 -4 -4 -99 12 -211 37 -324 70 -683
136 -690 128 -9 -10 -111 -575 -106 -581 2 -2 109 -24 238 -48 226 -44 727
-150 733 -156 3 -3 -75 -360 -80 -366 -1 -1 -130 25 -286 57 -259 54 -772 153
-944 182 -38 7 -74 15 -78 19 -6 5 318 2019 349 2172 4 22 10 27 27 23 12 -3
78 -14 147 -25z m-8964 -1107 c103 -480 191 -878 194 -884 5 -7 106 10 306 50
164 33 361 71 436 84 124 22 138 23 142 8 11 -40 60 -350 56 -354 -3 -3 -108
-24 -235 -47 -253 -45 -576 -112 -814 -167 -84 -19 -156 -31 -161 -26 -12 13
-502 2134 -495 2141 4 4 88 25 188 48 126 29 184 38 188 30 4 -6 91 -404 195
-883z"/>
<path d="M5465 12065 c-126 -19 -249 -38 -272 -41 -24 -4 -43 -12 -43 -18 0
-26 83 -532 89 -537 7 -7 433 58 558 86 171 37 233 109 233 270 0 74 -3 90
-33 146 -25 49 -43 70 -81 94 -72 44 -159 44 -451 0z"/>
<path d="M14441 11798 c-49 -240 -99 -493 -97 -495 6 -7 501 -103 573 -112
147 -18 228 20 284 134 75 153 38 305 -91 370 -63 32 -155 54 -632 151 -25 5
-27 2 -37 -48z"/>
<path d="M3655 11724 c-140 -21 -445 -93 -445 -105 0 -15 140 -592 145 -597
10 -10 417 97 477 125 71 34 119 76 151 137 32 60 31 200 -1 271 -57 123 -186
190 -327 169z"/>
<path d="M8021 9373 c-89 -371 -160 -677 -158 -678 4 -2 482 27 485 30 2 2
-44 133 -101 291 -146 402 -180 494 -187 494 -4 0 -21 -62 -39 -137z"/>
<path d="M13623 6519 c-73 -118 -337 -515 -431 -649 -950 -1341 -2066 -2404
-3184 -3034 -252 -142 -716 -356 -771 -356 -63 0 -543 224 -792 370 -1217 715
-2577 2072 -3538 3533 l-111 169 -36 -6 c-98 -16 -330 -70 -330 -77 0 -11 99
-168 223 -354 499 -750 1081 -1451 1753 -2116 409 -403 712 -668 1104 -963
581 -437 1134 -745 1662 -927 l66 -23 69 24 c37 13 137 52 221 87 1114 461
2258 1369 3312 2628 263 314 558 708 813 1087 170 251 381 588 373 595 -7 7
-315 72 -343 73 -17 0 -32 -15 -60 -61z"/>
<path d="M8822 6499 c-474 -61 -875 -380 -1030 -819 -52 -149 -66 -238 -66
-415 0 -145 4 -177 37 -336 55 -262 157 -600 219 -726 75 -152 179 -179 375
-98 123 51 158 57 272 44 84 -9 104 -15 161 -49 141 -85 265 -125 418 -136
102 -7 259 14 344 46 110 41 190 137 238 288 31 97 52 120 117 129 78 10 124
-33 164 -157 69 -209 194 -326 395 -367 68 -14 89 -15 136 -5 65 15 113 57
127 111 15 55 30 235 37 436 7 203 -2 284 -39 323 -43 47 -71 52 -294 52 -206
1 -423 19 -461 39 -10 5 -35 28 -55 51 -34 36 -37 45 -37 98 1 100 41 161 135
203 40 18 70 23 151 24 119 2 158 18 189 80 40 83 19 263 -49 410 -158 340
-428 588 -760 700 -202 68 -522 101 -724 74z m1758 -1873 c0 -7 3 -28 6 -45
l7 -31 -189 2 -189 3 0 35 0 35 115 6 c227 10 250 10 250 -5z m-37 -255 c18
-11 42 -36 52 -55 18 -34 18 -37 1 -91 -23 -75 -89 -145 -135 -145 -92 0 -194
127 -217 270 l-6 39 73 4 c130 7 195 1 232 -22z"/>
<path d="M14460 6284 c-396 -680 -926 -1432 -1459 -2069 -877 -1047 -1873
-1920 -2831 -2479 -201 -118 -583 -310 -782 -395 l-148 -62 -92 37 c-710 283
-1542 837 -2367 1578 -1034 928 -2065 2167 -2751 3306 -51 85 -94 156 -96 158
-3 5 -412 -104 -684 -183 -464 -134 -891 -276 -1195 -397 -248 -98 -516 -210
-512 -214 2 -2 1797 -54 1877 -54 5 0 66 -87 136 -192 1176 -1783 2815 -3436
4294 -4330 419 -253 838 -452 1231 -586 l166 -57 69 24 c973 336 1987 972
2999 1881 208 187 728 707 928 928 629 694 1176 1413 1691 2218 l77 122 152 6
c84 4 508 15 942 26 435 11 810 22 835 23 l45 2 -50 24 c-347 162 -1046 414
-1595 576 -248 73 -725 202 -781 211 l-36 6 -63 -108z"/>
</g>
</svg>
